<mxfile host="app.diagrams.net" modified="2021-09-28T12:25:07.273Z" agent="5.0 (Windows NT 10.0; Win64; x64) AppleWebKit/537.36 (KHTML, like Gecko) Chrome/93.0.4577.82 Safari/537.36" etag="ExuwwYkaLP6RNHxP0ap6" version="15.3.5" type="github">
  <diagram name="Page-1" id="e7e014a7-5840-1c2e-5031-d8a46d1fe8dd">
    <mxGraphModel dx="1102" dy="614" grid="1" gridSize="10" guides="1" tooltips="1" connect="1" arrows="1" fold="1" page="1" pageScale="1" pageWidth="1169" pageHeight="826" background="none" math="0" shadow="0">
      <root>
        <mxCell id="0" />
        <mxCell id="1" parent="0" />
        <mxCell id="xuA6VdCRp80vAim0a2DX-46" value="" style="edgeStyle=none;curved=1;rounded=0;orthogonalLoop=1;jettySize=auto;html=1;endArrow=open;startSize=14;endSize=14;sourcePerimeterSpacing=8;targetPerimeterSpacing=8;" edge="1" parent="1" source="xuA6VdCRp80vAim0a2DX-41" target="xuA6VdCRp80vAim0a2DX-45">
          <mxGeometry relative="1" as="geometry" />
        </mxCell>
        <mxCell id="xuA6VdCRp80vAim0a2DX-41" value="Турист&lt;br&gt;" style="shape=umlActor;verticalLabelPosition=bottom;verticalAlign=top;html=1;outlineConnect=0;hachureGap=4;pointerEvents=0;fillColor=#dae8fc;strokeColor=#6c8ebf;strokeWidth=2;" vertex="1" parent="1">
          <mxGeometry x="230" y="150" width="30" height="60" as="geometry" />
        </mxCell>
        <mxCell id="xuA6VdCRp80vAim0a2DX-49" value="" style="edgeStyle=none;curved=1;rounded=0;orthogonalLoop=1;jettySize=auto;html=1;endArrow=open;startSize=14;endSize=14;sourcePerimeterSpacing=8;targetPerimeterSpacing=8;" edge="1" parent="1" source="xuA6VdCRp80vAim0a2DX-45" target="xuA6VdCRp80vAim0a2DX-48">
          <mxGeometry relative="1" as="geometry" />
        </mxCell>
        <mxCell id="xuA6VdCRp80vAim0a2DX-51" value="" style="edgeStyle=none;curved=1;rounded=0;orthogonalLoop=1;jettySize=auto;html=1;endArrow=open;startSize=14;endSize=14;sourcePerimeterSpacing=8;targetPerimeterSpacing=8;" edge="1" parent="1" source="xuA6VdCRp80vAim0a2DX-45" target="xuA6VdCRp80vAim0a2DX-50">
          <mxGeometry relative="1" as="geometry" />
        </mxCell>
        <mxCell id="xuA6VdCRp80vAim0a2DX-45" value="Обратиться&lt;br&gt;к агенту" style="ellipse;whiteSpace=wrap;html=1;verticalAlign=top;strokeColor=#6c8ebf;strokeWidth=2;fillColor=#dae8fc;hachureGap=4;" vertex="1" parent="1">
          <mxGeometry x="340" y="130" width="120" height="60" as="geometry" />
        </mxCell>
        <mxCell id="xuA6VdCRp80vAim0a2DX-47" value="&lt;h1&gt;&lt;b&gt;Турагентство&lt;/b&gt;&lt;/h1&gt;" style="text;html=1;align=center;verticalAlign=middle;resizable=0;points=[];autosize=1;strokeColor=none;fillColor=none;" vertex="1" parent="1">
          <mxGeometry x="430" y="30" width="170" height="50" as="geometry" />
        </mxCell>
        <mxCell id="xuA6VdCRp80vAim0a2DX-53" value="" style="edgeStyle=none;curved=1;rounded=0;orthogonalLoop=1;jettySize=auto;html=1;endArrow=open;startSize=14;endSize=14;sourcePerimeterSpacing=8;targetPerimeterSpacing=8;" edge="1" parent="1" source="xuA6VdCRp80vAim0a2DX-48" target="xuA6VdCRp80vAim0a2DX-52">
          <mxGeometry relative="1" as="geometry" />
        </mxCell>
        <mxCell id="xuA6VdCRp80vAim0a2DX-48" value="Выбрать тип &lt;br&gt;отдыха" style="ellipse;whiteSpace=wrap;html=1;verticalAlign=top;strokeColor=#6c8ebf;strokeWidth=2;fillColor=#dae8fc;hachureGap=4;" vertex="1" parent="1">
          <mxGeometry x="340" y="240" width="120" height="60" as="geometry" />
        </mxCell>
        <mxCell id="xuA6VdCRp80vAim0a2DX-55" value="" style="edgeStyle=none;curved=1;rounded=0;orthogonalLoop=1;jettySize=auto;html=1;endArrow=open;startSize=14;endSize=14;sourcePerimeterSpacing=8;targetPerimeterSpacing=8;" edge="1" parent="1" source="xuA6VdCRp80vAim0a2DX-50" target="xuA6VdCRp80vAim0a2DX-52">
          <mxGeometry relative="1" as="geometry" />
        </mxCell>
        <mxCell id="xuA6VdCRp80vAim0a2DX-50" value="выбрать&lt;br&gt;место курорта" style="ellipse;whiteSpace=wrap;html=1;verticalAlign=top;strokeColor=#6c8ebf;strokeWidth=2;fillColor=#dae8fc;hachureGap=4;" vertex="1" parent="1">
          <mxGeometry x="540" y="130" width="120" height="60" as="geometry" />
        </mxCell>
        <mxCell id="xuA6VdCRp80vAim0a2DX-57" value="" style="edgeStyle=none;curved=1;rounded=0;orthogonalLoop=1;jettySize=auto;html=1;endArrow=open;startSize=14;endSize=14;sourcePerimeterSpacing=8;targetPerimeterSpacing=8;" edge="1" parent="1" source="xuA6VdCRp80vAim0a2DX-52" target="xuA6VdCRp80vAim0a2DX-56">
          <mxGeometry relative="1" as="geometry" />
        </mxCell>
        <mxCell id="xuA6VdCRp80vAim0a2DX-52" value="определить&amp;nbsp;&lt;br&gt;сроки курорта" style="ellipse;whiteSpace=wrap;html=1;verticalAlign=top;strokeColor=#6c8ebf;strokeWidth=2;fillColor=#dae8fc;hachureGap=4;" vertex="1" parent="1">
          <mxGeometry x="540" y="240" width="120" height="60" as="geometry" />
        </mxCell>
        <mxCell id="xuA6VdCRp80vAim0a2DX-60" value="" style="edgeStyle=none;curved=1;rounded=0;orthogonalLoop=1;jettySize=auto;html=1;endArrow=open;startSize=14;endSize=14;sourcePerimeterSpacing=8;targetPerimeterSpacing=8;" edge="1" parent="1" source="xuA6VdCRp80vAim0a2DX-56" target="xuA6VdCRp80vAim0a2DX-58">
          <mxGeometry relative="1" as="geometry" />
        </mxCell>
        <mxCell id="xuA6VdCRp80vAim0a2DX-56" value="подобрать&amp;nbsp;&lt;br&gt;понравившегося&amp;nbsp;&lt;br&gt;туроператора" style="ellipse;whiteSpace=wrap;html=1;verticalAlign=top;strokeColor=#6c8ebf;strokeWidth=2;fillColor=#dae8fc;hachureGap=4;" vertex="1" parent="1">
          <mxGeometry x="780" y="130" width="120" height="60" as="geometry" />
        </mxCell>
        <mxCell id="xuA6VdCRp80vAim0a2DX-62" value="" style="edgeStyle=none;curved=1;rounded=0;orthogonalLoop=1;jettySize=auto;html=1;endArrow=open;startSize=14;endSize=14;sourcePerimeterSpacing=8;targetPerimeterSpacing=8;" edge="1" parent="1" source="xuA6VdCRp80vAim0a2DX-58" target="xuA6VdCRp80vAim0a2DX-61">
          <mxGeometry relative="1" as="geometry" />
        </mxCell>
        <mxCell id="xuA6VdCRp80vAim0a2DX-67" value="" style="edgeStyle=none;curved=1;rounded=0;orthogonalLoop=1;jettySize=auto;html=1;endArrow=open;startSize=14;endSize=14;sourcePerimeterSpacing=8;targetPerimeterSpacing=8;" edge="1" parent="1" source="xuA6VdCRp80vAim0a2DX-58" target="xuA6VdCRp80vAim0a2DX-66">
          <mxGeometry relative="1" as="geometry" />
        </mxCell>
        <mxCell id="xuA6VdCRp80vAim0a2DX-69" value="" style="edgeStyle=none;curved=1;rounded=0;orthogonalLoop=1;jettySize=auto;html=1;endArrow=open;startSize=14;endSize=14;sourcePerimeterSpacing=8;targetPerimeterSpacing=8;" edge="1" parent="1" source="xuA6VdCRp80vAim0a2DX-58" target="xuA6VdCRp80vAim0a2DX-68">
          <mxGeometry relative="1" as="geometry" />
        </mxCell>
        <mxCell id="xuA6VdCRp80vAim0a2DX-58" value="туроператор" style="shape=umlActor;verticalLabelPosition=bottom;verticalAlign=top;html=1;outlineConnect=0;hachureGap=4;pointerEvents=0;strokeWidth=2;" vertex="1" parent="1">
          <mxGeometry x="970" y="130" width="30" height="60" as="geometry" />
        </mxCell>
        <mxCell id="xuA6VdCRp80vAim0a2DX-61" value="бронь отеля" style="ellipse;whiteSpace=wrap;html=1;verticalAlign=top;strokeWidth=2;hachureGap=4;" vertex="1" parent="1">
          <mxGeometry x="770" y="310" width="120" height="60" as="geometry" />
        </mxCell>
        <mxCell id="xuA6VdCRp80vAim0a2DX-63" value="Actor" style="shape=umlActor;verticalLabelPosition=bottom;verticalAlign=top;html=1;outlineConnect=0;hachureGap=4;pointerEvents=0;strokeWidth=2;" vertex="1" parent="1">
          <mxGeometry x="815" y="433" width="30" height="60" as="geometry" />
        </mxCell>
        <mxCell id="xuA6VdCRp80vAim0a2DX-64" value="Actor" style="shape=umlActor;verticalLabelPosition=bottom;verticalAlign=top;html=1;outlineConnect=0;hachureGap=4;pointerEvents=0;strokeWidth=2;" vertex="1" parent="1">
          <mxGeometry x="970" y="490" width="30" height="60" as="geometry" />
        </mxCell>
        <mxCell id="xuA6VdCRp80vAim0a2DX-65" value="Actor" style="shape=umlActor;verticalLabelPosition=bottom;verticalAlign=top;html=1;outlineConnect=0;hachureGap=4;pointerEvents=0;strokeWidth=2;" vertex="1" parent="1">
          <mxGeometry x="1135" y="433" width="30" height="60" as="geometry" />
        </mxCell>
        <mxCell id="xuA6VdCRp80vAim0a2DX-66" value="резервирование&lt;br&gt;транспорта" style="ellipse;whiteSpace=wrap;html=1;verticalAlign=top;strokeWidth=2;hachureGap=4;" vertex="1" parent="1">
          <mxGeometry x="925" y="310" width="120" height="60" as="geometry" />
        </mxCell>
        <mxCell id="xuA6VdCRp80vAim0a2DX-68" value="составление&lt;br&gt;программы отдыха" style="ellipse;whiteSpace=wrap;html=1;verticalAlign=top;strokeWidth=2;hachureGap=4;" vertex="1" parent="1">
          <mxGeometry x="1090" y="310" width="120" height="60" as="geometry" />
        </mxCell>
      </root>
    </mxGraphModel>
  </diagram>
</mxfile>
